<svg xmlns:xlink="http://www.w3.org/1999/xlink" xmlns="http://www.w3.org/2000/svg" width="133" height="510" viewBox="0 0 133 510" fill="none">
<mask id="mask0" mask-type="alpha" maskUnits="userSpaceOnUse" x="0" y="0" width="133" height="515">
<rect width="133" height="515" transform="matrix(-1 0 0 1 133 0)" fill="#C4C4C4"/>
</mask>
<g mask="url(#mask0)">
<circle cx="104.776" cy="5.64374" r="12.6437" stroke="#F4D8CD" stroke-opacity="0.64" stroke-width="4"/>
<circle cx="104.776" cy="47.9479" r="12.6437" stroke="#F4D8CD" stroke-opacity="0.64" stroke-width="4"/>
<circle cx="104.776" cy="90.252" r="12.6437" stroke="#F4D8CD" stroke-opacity="0.64" stroke-width="4"/>
<circle cx="104.776" cy="132.556" r="12.6437" stroke="#F4D8CD" stroke-opacity="0.64" stroke-width="4"/>
<circle cx="104.776" cy="174.86" r="12.6437" stroke="#F4D8CD" stroke-opacity="0.64" stroke-width="4"/>
<circle cx="104.776" cy="217.165" r="12.6437" stroke="#F4D8CD" stroke-opacity="0.64" stroke-width="4"/>
<circle cx="104.776" cy="259.469" r="12.6437" stroke="#F4D8CD" stroke-opacity="0.64" stroke-width="4"/>
<circle cx="104.776" cy="301.773" r="12.6437" stroke="#F4D8CD" stroke-opacity="0.64" stroke-width="4"/>
<circle cx="104.776" cy="344.077" r="12.6437" stroke="#F4D8CD" stroke-opacity="0.64" stroke-width="4"/>
<circle cx="104.776" cy="386.381" r="12.6437" stroke="#F4D8CD" stroke-opacity="0.64" stroke-width="4"/>
<circle cx="104.776" cy="428.685" r="12.6437" stroke="#F4D8CD" stroke-opacity="0.64" stroke-width="4"/>
<circle cx="104.776" cy="470.989" r="12.6437" stroke="#F4D8CD" stroke-opacity="0.64" stroke-width="4"/>
<circle cx="104.776" cy="513.293" r="12.6437" stroke="#F4D8CD" stroke-opacity="0.64" stroke-width="4"/>
<circle cx="37.5226" cy="5.64374" r="12.6437" stroke="#F4D8CD" stroke-opacity="0.64" stroke-width="4"/>
<circle cx="37.5226" cy="47.9479" r="12.6437" stroke="#F4D8CD" stroke-opacity="0.64" stroke-width="4"/>
<circle cx="37.5226" cy="90.252" r="12.6437" stroke="#F4D8CD" stroke-opacity="0.64" stroke-width="4"/>
<circle cx="37.5226" cy="132.556" r="12.6437" stroke="#F4D8CD" stroke-opacity="0.64" stroke-width="4"/>
<circle cx="37.5226" cy="174.86" r="12.6437" stroke="#F4D8CD" stroke-opacity="0.64" stroke-width="4"/>
<circle cx="37.5226" cy="217.165" r="12.6437" stroke="#F4D8CD" stroke-opacity="0.64" stroke-width="4"/>
<circle cx="37.5226" cy="259.469" r="12.6437" stroke="#F4D8CD" stroke-opacity="0.64" stroke-width="4"/>
<circle cx="37.5226" cy="301.773" r="12.6437" stroke="#F4D8CD" stroke-opacity="0.64" stroke-width="4"/>
<circle cx="37.5226" cy="344.077" r="12.6437" stroke="#F4D8CD" stroke-opacity="0.64" stroke-width="4"/>
<circle cx="37.5226" cy="386.381" r="12.6437" stroke="#F4D8CD" stroke-opacity="0.64" stroke-width="4"/>
<circle cx="37.5226" cy="428.685" r="12.6437" stroke="#F4D8CD" stroke-opacity="0.64" stroke-width="4"/>
<circle cx="37.5226" cy="470.989" r="12.6437" stroke="#F4D8CD" stroke-opacity="0.64" stroke-width="4"/>
<circle cx="37.5226" cy="513.293" r="12.6437" stroke="#F4D8CD" stroke-opacity="0.64" stroke-width="4"/>
<circle cx="71.1506" cy="27.3382" r="12.6437" stroke="#F4D8CD" stroke-opacity="0.64" stroke-width="4"/>
<circle cx="71.1496" cy="69.6424" r="12.6437" stroke="#F4D8CD" stroke-opacity="0.64" stroke-width="4"/>
<circle cx="71.1496" cy="111.946" r="12.6437" stroke="#F4D8CD" stroke-opacity="0.64" stroke-width="4"/>
<circle cx="71.1496" cy="154.251" r="12.6437" stroke="#F4D8CD" stroke-opacity="0.64" stroke-width="4"/>
<circle cx="71.1496" cy="196.555" r="12.6437" stroke="#F4D8CD" stroke-opacity="0.64" stroke-width="4"/>
<circle cx="71.1496" cy="238.859" r="12.6437" stroke="#F4D8CD" stroke-opacity="0.64" stroke-width="4"/>
<circle cx="71.1496" cy="281.163" r="12.6437" stroke="#F4D8CD" stroke-opacity="0.64" stroke-width="4"/>
<circle cx="71.1496" cy="323.467" r="12.6437" stroke="#F4D8CD" stroke-opacity="0.64" stroke-width="4"/>
<circle cx="71.1496" cy="365.771" r="12.6437" stroke="#F4D8CD" stroke-opacity="0.64" stroke-width="4"/>
<circle cx="71.1496" cy="408.075" r="12.6437" stroke="#F4D8CD" stroke-opacity="0.64" stroke-width="4"/>
<circle cx="71.1496" cy="450.38" r="12.6437" stroke="#F4D8CD" stroke-opacity="0.64" stroke-width="4"/>
<circle cx="71.1496" cy="492.684" r="12.6437" stroke="#F4D8CD" stroke-opacity="0.64" stroke-width="4"/>
<circle cx="3.89667" cy="27.3382" r="12.6437" stroke="#F4D8CD" stroke-opacity="0.64" stroke-width="4"/>
<circle cx="3.89667" cy="69.6424" r="12.6437" stroke="#F4D8CD" stroke-opacity="0.64" stroke-width="4"/>
<circle cx="3.89667" cy="111.946" r="12.6437" stroke="#F4D8CD" stroke-opacity="0.64" stroke-width="4"/>
<circle cx="3.89667" cy="154.251" r="12.6437" stroke="#F4D8CD" stroke-opacity="0.64" stroke-width="4"/>
<circle cx="3.89667" cy="196.555" r="12.6437" stroke="#F4D8CD" stroke-opacity="0.64" stroke-width="4"/>
<circle cx="3.89667" cy="238.859" r="12.6437" stroke="#F4D8CD" stroke-opacity="0.64" stroke-width="4"/>
<circle cx="3.89667" cy="281.163" r="12.6437" stroke="#F4D8CD" stroke-opacity="0.64" stroke-width="4"/>
<circle cx="3.89667" cy="323.467" r="12.6437" stroke="#F4D8CD" stroke-opacity="0.64" stroke-width="4"/>
<circle cx="3.89667" cy="365.771" r="12.6437" stroke="#F4D8CD" stroke-opacity="0.64" stroke-width="4"/>
<circle cx="3.89667" cy="408.075" r="12.6437" stroke="#F4D8CD" stroke-opacity="0.64" stroke-width="4"/>
<circle cx="3.89667" cy="450.38" r="12.6437" stroke="#F4D8CD" stroke-opacity="0.64" stroke-width="4"/>
<circle cx="3.89667" cy="492.684" r="12.6437" stroke="#F4D8CD" stroke-opacity="0.64" stroke-width="4"/>
</g>
</svg>