<svg xmlns:xlink="http://www.w3.org/1999/xlink" xmlns="http://www.w3.org/2000/svg" width="12" height="16" viewBox="0 0 12 16" fill="none">
<path d="M5.99593 0H5.98777C2.67574 0.00803616 -0.00813915 2.65997 1.85474e-05 5.92265C0.00817624 8.97639 4.97621 15.0919 5.54725 15.775C5.66146 15.9196 5.84093 16 6.0204 16C6.20803 16 6.37934 15.9196 6.49355 15.775C7.05643 15.0839 12.0081 8.96032 12 5.89854C11.9918 2.6439 9.29979 0 5.99593 0ZM1.22367 5.92265C1.21552 3.32697 3.35283 1.21346 5.98777 1.20542H5.99593C8.6227 1.20542 10.7682 3.3109 10.7763 5.90658C10.7763 7.92366 7.68457 12.2953 6.01224 14.4249C4.33991 12.2953 1.22367 7.93973 1.22367 5.92265ZM7.15432 5.90658C7.15432 6.5334 6.63223 7.04772 5.99593 7.04772C5.35963 7.04772 4.83753 6.5334 4.83753 5.90658C4.83753 5.27976 5.35963 4.76544 5.99593 4.76544C6.63223 4.76544 7.15432 5.27976 7.15432 5.90658Z" fill="#17233C"/>
</svg>