<svg xmlns:xlink="http://www.w3.org/1999/xlink" xmlns="http://www.w3.org/2000/svg" width="25" height="26" viewBox="0 0 25 26" fill="none">
<g clip-path="url(#clip0)">
<path d="M5.7934 20.1414H1.43555V10.5157H5.7934" stroke="#0A4195" stroke-width="1.5" stroke-miterlimit="10" stroke-linecap="square"/>
<path d="M5.79395 10.5157L8.40866 0.890015C9.84675 0.890015 11.0234 2.07135 11.0234 3.5152V8.76556H17.5602C19.1726 8.76556 20.3928 10.2094 20.1313 11.7845L19.1726 17.9099C18.9547 19.1788 17.8652 20.1414 16.6014 20.1414H5.79395V10.5157Z" stroke="#0A4195" stroke-width="1.5" stroke-miterlimit="10" stroke-linecap="square"/>
<path d="M8.22461 16.7246C7.94847 16.7246 7.72461 16.9485 7.72461 17.2246C7.72461 17.5008 7.94847 17.7246 8.22461 17.7246V16.7246ZM16.5118 15.5673L16.0192 15.4816L16.5118 15.5673ZM16.7631 11.2042L16.0192 15.4816L17.0044 15.653L17.7483 11.3756L16.7631 11.2042ZM14.5414 16.7246H8.22461V17.7246H14.5414V16.7246ZM16.0192 15.4816C15.8942 16.2001 15.2706 16.7246 14.5414 16.7246V17.7246C15.7568 17.7246 16.7961 16.8504 17.0044 15.653L16.0192 15.4816Z" fill="#72D4BA"/>
</g>
<defs>
<clipPath id="clip0">
<rect width="24.3897" height="25.0315" fill="white" transform="translate(0.610352)"/>
</clipPath>
</defs>
</svg>