<svg xmlns="http://www.w3.org/2000/svg" xmlns:xlink="http://www.w3.org/1999/xlink" version="1.1" id="Layer_1" x="0px" y="0px" viewBox="0 0 31 25" style="enable-background:new 0 0 31 25;" xml:space="preserve" width="40"  height="27" >
<style type="text/css">
	.st0{fill:none;stroke:#0A4195;stroke-width:1.5;}
	.st1{fill:none;stroke:#72D4BA;stroke-linecap:round;stroke-linejoin:round;}
	.st2{fill:#0A4195;}
</style>
<g>
	<path class="st0" d="M11.9,16.2c-2.2-3.9-0.9-8.8,3-11c3.9-2.2,8.8-0.9,11.1,2.9c2.2,3.9,0.9,8.8-3,11   C19.1,21.4,14.1,20.1,11.9,16.2z"/>
	<path class="st1" d="M22.6,8.5c2.1,2.1,2.1,5.4,0,7.4s-5.4,2.1-7.5,0"/>
	<path class="st2" d="M12.2,17L2,22.8c-0.5,0.3-1.2,0.1-1.5-0.4l0,0c-0.3-0.5-0.1-1.2,0.4-1.5l10.1-5.8c0.5-0.3,1.2-0.1,1.5,0.4l0,0   C12.9,16,12.7,16.7,12.2,17z"/>
</g>
</svg>