<svg xmlns:xlink="http://www.w3.org/1999/xlink" style="position:absolute;left:15px" width="20" height="24" viewBox="0 0 20 24" fill="none" xmlns="http://www.w3.org/2000/svg"><path d="M11.9952 2.5H11.9855C8.05245 2.50954 4.86533 5.65871 4.87502 9.53315C4.88471 13.1595 10.7843 20.4216 11.4624 21.2328C11.598 21.4046 11.8111 21.5 12.0242 21.5C12.247 21.5 12.4505 21.4046 12.5861 21.2328C13.2545 20.4121 19.1347 13.1404 19.125 9.50452C19.1153 5.63963 15.9185 2.5 11.9952 2.5ZM6.32811 9.53315C6.31842 6.45078 8.85649 3.94098 11.9855 3.93144H11.9952C15.1145 3.93144 17.6622 6.43169 17.6719 9.51406C17.6719 11.9093 14.0004 17.1007 12.0145 19.6296C10.0286 17.1007 6.32811 11.9284 6.32811 9.53315ZM13.3708 9.51406C13.3708 10.2584 12.7508 10.8692 11.9952 10.8692C11.2396 10.8692 10.6196 10.2584 10.6196 9.51406C10.6196 8.76971 11.2396 8.15897 11.9952 8.15897C12.7508 8.15897 13.3708 8.76971 13.3708 9.51406Z" fill="#8E9697"></path></svg>