<?xml version="1.0" encoding="UTF-8" standalone="no"?>
<!-- Created with Inkscape (http://www.inkscape.org/) -->

<svg
   xmlns:dc="http://purl.org/dc/elements/1.1/"
   xmlns:cc="http://creativecommons.org/ns#"
   xmlns:rdf="http://www.w3.org/1999/02/22-rdf-syntax-ns#"
   xmlns:svg="http://www.w3.org/2000/svg"
   xmlns="http://www.w3.org/2000/svg"
   xmlns:sodipodi="http://sodipodi.sourceforge.net/DTD/sodipodi-0.dtd"
   xmlns:inkscape="http://www.inkscape.org/namespaces/inkscape"
   width="210mm"
   height="297mm"
   viewBox="0 0 744.09448819 1052.3622047"
   id="svg2"
   version="1.1"
   inkscape:version="0.91 r13725"
   sodipodi:docname="Toy boat 01.svg">
  <defs
     id="defs4" />
  <sodipodi:namedview
     id="base"
     pagecolor="#ffffff"
     bordercolor="#666666"
     borderopacity="1.0"
     inkscape:pageopacity="0.0"
     inkscape:pageshadow="2"
     inkscape:zoom="0.7"
     inkscape:cx="399.83815"
     inkscape:cy="805.25145"
     inkscape:document-units="px"
     inkscape:current-layer="layer1"
     showgrid="false"
     showguides="false"
     inkscape:window-width="1920"
     inkscape:window-height="1017"
     inkscape:window-x="-8"
     inkscape:window-y="-8"
     inkscape:window-maximized="1">
    <inkscape:grid
       type="xygrid"
       id="grid4139" />
  </sodipodi:namedview>
  <metadata
     id="metadata7">
    <rdf:RDF>
      <cc:Work
         rdf:about="">
        <dc:format>image/svg+xml</dc:format>
        <dc:type
           rdf:resource="http://purl.org/dc/dcmitype/StillImage" />
        <dc:title></dc:title>
      </cc:Work>
    </rdf:RDF>
  </metadata>
  <g
     inkscape:label="Capa 1"
     inkscape:groupmode="layer"
     id="layer1">
    <path
       style="opacity:1;fill:#ffeeaa;fill-opacity:1;fill-rule:nonzero;stroke:none;stroke-width:6;stroke-linejoin:round;stroke-miterlimit:4;stroke-dasharray:none;stroke-dashoffset:0"
       inkscape:transform-center-x="6.2965718"
       inkscape:transform-center-y="-57.754904"
       d="m 381.61019,185.73966 c 0,0 66.54508,132.57069 104.43272,197.31767 28.44491,48.61005 62.13418,118.68472 101.232,181.55135 52.28752,84.07474 107.4554,156.22826 107.4554,156.22826 l -100.75313,-7.84905 -94.14452,-2.21157 -117.6654,4.19701 c 0,0 -2.66607,-22.59068 -1.82926,-33.86419 0.89921,-12.11436 6.46383,-23.5833 7.31684,-35.70102 1.19744,-17.0107 -2.86149,-34.01101 -3.14904,-51.06139 -0.88593,-52.53046 5.59885,-105.02853 4.3916,-157.55259 -0.79866,-34.74751 -5.96372,-69.2723 -7.69108,-103.98605 -1.41745,-28.48582 -2.42683,-57.01503 -2.19103,-85.53512 0.16973,-20.52863 2.5949,-61.53331 2.5949,-61.53331 z"
       id="path4152"
       inkscape:connector-curvature="0"
       sodipodi:nodetypes="cssccccssssssc" />
    <path
       sodipodi:nodetypes="ccccssssccccccc"
       inkscape:connector-curvature="0"
       id="path4159"
       d="M 364.52623,185.73966 260.63095,366.97064 143.23625,551.94689 54.482846,712.83739 c 0,0 47.835704,5.05339 71.833404,4.83673 28.40643,-0.25646 56.51893,-6.38336 84.913,-7.25959 21.33662,-0.65845 42.69608,2.44193 64.02253,1.51037 15.85322,-0.69248 31.4594,-5.96096 47.31261,-5.26827 14.06384,0.6145 41.40477,8.3167 41.40477,8.3167 l -0.98982,-64.67464 5.60345,-63.30479 -0.0943,-72.03889 -4.45493,-64.61366 0.16843,-89.8379 z"
       inkscape:transform-center-y="-57.754905"
       inkscape:transform-center-x="-6.296575"
       style="opacity:1;fill:#ffeeaa;fill-opacity:1;fill-rule:nonzero;stroke:none;stroke-width:6;stroke-linejoin:round;stroke-miterlimit:4;stroke-dasharray:none;stroke-dashoffset:0" />
    <g
       id="g4212"
       transform="matrix(1.2183283,0,0,1.2183283,518.29181,137.39524)">
      <path
         style="opacity:1;fill:#000000;fill-opacity:1;fill-rule:nonzero;stroke:none;stroke-width:5;stroke-linecap:round;stroke-linejoin:round;stroke-miterlimit:4;stroke-dasharray:none;stroke-dashoffset:0"
         d="m -115.98763,-2.9693209 c -0.10055,7.1253904 1.24064,13.8829109 1.10537,21.4012559 -0.11386,6.328009 -1.42067,12.784774 -1.56504,19.343184 -1.40225,63.700731 -2.58712,136.990471 3.50572,195.025831 2.05152,37.56819 -0.5687,74.70462 0.61362,111.101 -5.20592,33.44583 4.11476,68.29738 -5.64823,101.18871 -3.17473,17.71711 7.3021,35.09716 3.09901,52.62862 -7.84308,-3.57075 -9.44512,-29.80026 -8.79954,-42.96744 1.96798,-24.02618 4.39346,-47.98096 4.34814,-72.12982 1.88212,-44.68468 0.0607,-77.74208 -0.24804,-122.01026 -2.70937,-61.04257 -6.61762,-134.23677 -3.26831,-195.385806 3.82957,-17.467849 -6.17043,-52.467849 6.8573,-68.1952749 z"
         id="path4201"
         inkscape:connector-curvature="0"
         sodipodi:nodetypes="cssccccccccc" />
      <path
         style="opacity:1;fill:#000000;fill-opacity:1;fill-rule:nonzero;stroke:none;stroke-width:5;stroke-linecap:round;stroke-linejoin:round;stroke-miterlimit:4;stroke-dasharray:none;stroke-dashoffset:0"
         d="m -107.91867,478.22065 c 45.518943,-3.73813 91.120225,-4.8331 136.746747,-2.79965 37.240274,1.66251 74.812003,3.12266 111.910973,7.46832 22.21076,8.24273 -22.88154,5.16487 -30.15008,3.57412 -64.396158,-3.80833 -129.143946,-8.93021 -193.598151,-3.18441 -5.378722,-3.98673 -31.387849,9.5198 -24.909489,-5.05838 z"
         id="path4203"
         inkscape:connector-curvature="0" />
      <path
         style="opacity:1;fill:#000000;fill-opacity:1;fill-rule:nonzero;stroke:none;stroke-width:5;stroke-linecap:round;stroke-linejoin:round;stroke-miterlimit:4;stroke-dasharray:none;stroke-dashoffset:0"
         d="m -124.31834,480.54488 c -27.57708,-3.05386 -55.09786,1.02038 -82.37337,2.44482 -47.24256,-2.6209 -94.33413,5.25656 -141.4825,3.34323 -12.81423,-0.002 -54.94601,-6.02227 -22.61408,-9.75634 25.27927,6.67791 50.76972,4.07839 76.48559,2.18854 33.4396,-2.72728 67.18812,-2.43318 100.54343,-2.24837 7.65341,-0.75547 17.41273,-2.43609 27.30062,-3.51736 17.03612,-1.86296 34.45391,-1.94678 42.14031,7.54548 z"
         id="path4205"
         inkscape:connector-curvature="0"
         sodipodi:nodetypes="ccccccscc" />
    </g>
    <path
       style="opacity:1;fill:#d40000;fill-opacity:1;fill-rule:nonzero;stroke:none;stroke-width:6;stroke-linejoin:round;stroke-miterlimit:4;stroke-dasharray:none;stroke-dashoffset:0"
       d="m 166.17097,735.21919 c 175.52039,-1.00781 322.61486,-0.90995 483.05629,1.5922 -53.79927,96.2354 -60.8536,105.17866 -111.68579,168.28786 0,0 -22.76208,-2.57907 -58.51812,-2.3276 -13.13115,0.0924 -29.14405,3.20148 -44.81491,3.20198 -19.65952,6.2e-4 -43.5848,1.57212 -64.81491,0.90204 -26.41841,-0.83383 -50.33395,-3.94544 -76.16308,-3.9456 -14.80416,-10e-5 -41.81023,1.52371 -55.27106,1.82199 -28.99558,0.64255 -41.07231,0.35018 -56.36634,0.34719 -31.10891,-0.006 -108.711194,-167.71635 -43.78368,-169.29718 32.34644,-0.78756 28.04667,-0.58296 28.3616,-0.58288 z"
       id="rect4136"
       inkscape:connector-curvature="0"
       sodipodi:nodetypes="ccssssssssc" />
    <g
       id="g4176"
       transform="matrix(1.2183283,0,0,1.2183283,-84.799425,-57.054954)">
      <circle
         r="24.7995"
         cy="701.38495"
         cx="264.20566"
         id="path4141"
         style="opacity:1;fill:#ffffff;fill-opacity:1;fill-rule:nonzero;stroke:none;stroke-width:6;stroke-linejoin:round;stroke-miterlimit:4;stroke-dasharray:none;stroke-dashoffset:0" />
      <circle
         style="opacity:1;fill:#ffffff;fill-opacity:1;fill-rule:nonzero;stroke:none;stroke-width:6;stroke-linejoin:round;stroke-miterlimit:4;stroke-dasharray:none;stroke-dashoffset:0"
         id="circle4143"
         cx="376.31573"
         cy="701.38495"
         r="24.7995" />
      <circle
         r="24.7995"
         cy="701.38495"
         cx="488.42581"
         id="circle4145"
         style="opacity:1;fill:#ffffff;fill-opacity:1;fill-rule:nonzero;stroke:none;stroke-width:6;stroke-linejoin:round;stroke-miterlimit:4;stroke-dasharray:none;stroke-dashoffset:0" />
    </g>
    <path
       style="fill:#d40000;fill-opacity:1;fill-rule:evenodd;stroke:none;stroke-width:1px;stroke-linecap:butt;stroke-linejoin:miter;stroke-opacity:1"
       d="m 379.38367,134.66387 c 0,0 3.26873,16.97004 3.21429,25.55548 -0.0495,7.79967 -3.21429,23.17766 -3.21429,23.17766 0,0 29.60612,-5.4236 42.20729,-8.89458 15.9928,-4.4052 43.07569,-15.47199 43.07569,-15.47199 0,0 -31.83421,-5.60176 -47.31318,-10.13363 -12.97204,-3.79791 -37.9698,-14.23294 -37.9698,-14.23294 z"
       id="path4224"
       inkscape:connector-curvature="0"
       sodipodi:nodetypes="cscscsc" />
  </g>
</svg>
