<svg xmlns:xlink="http://www.w3.org/1999/xlink" width="18" height="18" viewBox="0 0 18 18" fill="none" xmlns="http://www.w3.org/2000/svg"><path d="M14.891 0.783691H3.10801C1.60158 0.783691 0.380859 2.00444 0.380859 3.51086V9.52788C0.380859 11.0343 1.60158 12.255 3.10801 12.255H4.07766V16.5665C4.07766 16.8263 4.23349 17.0687 4.47591 17.1639C4.55383 17.1985 4.6404 17.2158 4.72698 17.2158C4.89147 17.2158 5.06463 17.1466 5.18583 17.0254L9.95617 12.255H14.891C16.3974 12.255 17.6182 11.0343 17.6182 9.52788V3.51086C17.6182 2.00444 16.3888 0.783691 14.891 0.783691ZM16.3195 9.52788C16.3195 10.3157 15.6789 10.9564 14.891 10.9564H9.68779C9.51464 10.9564 9.35014 11.0256 9.22894 11.1469L5.3763 14.9995V11.6057C5.3763 11.2507 5.08194 10.9564 4.72698 10.9564H3.10801C2.32016 10.9564 1.6795 10.3157 1.6795 9.52788V3.51086C1.6795 2.72302 2.32016 2.08233 3.10801 2.08233H14.891C15.6789 2.08233 16.3195 2.72302 16.3195 3.51086V9.52788ZM6.12951 6.51505C6.12951 7.19034 5.57542 7.74442 4.90013 7.74442C4.22484 7.74442 3.67075 7.19034 3.67075 6.51505C3.67075 5.83976 4.22484 5.28566 4.90013 5.28566C5.57542 5.28566 6.12951 5.83976 6.12951 6.51505ZM10.2246 6.51505C10.2246 7.19034 9.67047 7.74442 8.99518 7.74442C8.31989 7.74442 7.7658 7.19034 7.7658 6.51505C7.7658 5.83976 8.31989 5.28566 8.99518 5.28566C9.67047 5.28566 10.2246 5.83976 10.2246 6.51505ZM14.3283 6.51505C14.3283 7.19034 13.7742 7.74442 13.0989 7.74442C12.4236 7.74442 11.8695 7.19034 11.8695 6.51505C11.8695 5.83976 12.4236 5.28566 13.0989 5.28566C13.7742 5.28566 14.3283 5.83976 14.3283 6.51505Z" fill="#17233C"></path></svg>